<svg version="1.1" xmlns="http://www.w3.org/2000/svg" xmlns:xlink="http://www.w3.org/1999/xlink" width="411.00053" height="75.27576" viewBox="0,0,411.00053,75.27576"><g transform="translate(-0.24357,-244.42045)"><g data-paper-data="{&quot;isPaintingLayer&quot;:true}" fill="#9966ff" fill-rule="nonzero" stroke="none" stroke-width="0.5" stroke-linecap="butt" stroke-linejoin="miter" stroke-miterlimit="10" stroke-dasharray="" stroke-dashoffset="0" style="mix-blend-mode: normal"><path d="M238.84193,277.168c-3.4288,1.57812 -6.25929,4.58389 -9.67698,6.26489c-4.57161,2.24856 -9.73556,3.44582 -14.57912,4.94899c-6.38367,1.98114 -12.81269,4.44239 -19.31468,5.98402c-2.97298,0.70489 -7.5908,0.42539 -10.1821,0.4305c-0.2184,-1.30583 -0.13132,-2.70157 -0.65519,-3.91749c-0.28035,-0.65069 -1.17732,-0.82149 -1.62366,-1.37174c-0.87506,-1.07879 -1.67399,-2.2342 -2.30506,-3.47164c-3.20046,-6.27563 -5.66917,-13.41484 -10.17747,-19.01512c-2.65987,-3.30413 -5.80299,-6.24989 -8.51747,-9.51324c-2.08909,-2.51152 -6.21245,-8.24455 -10.06664,-8.08497c-2.1919,0.09075 -4.19561,1.28395 -6.30103,1.9003c-5.39671,1.57987 -10.72048,3.39851 -15.74226,5.9094c-2.66826,0.82493 -8.27947,4.03916 -9.64701,6.64701c-0.37909,0.72292 0.29741,1.63945 0.15802,2.44375c-0.22178,1.27968 -0.6519,2.53284 -1.22267,3.69944c-1.24557,2.54581 -3.70321,4.96094 -5.16867,7.31008c-2.64174,4.2347 -4.91468,8.71525 -7.62815,12.93923c-1.76101,2.74133 -3.87132,5.27373 -5.3746,8.16443c-1.57651,3.03151 -3.04952,6.14782 -5.03277,8.93029c-1.31256,1.84151 -2.82509,4.8678 -5.08414,5.86577c-1.08179,0.4779 -2.38117,-0.05672 -3.54451,0.15609c-1.0401,0.19026 -1.95251,0.87341 -2.99659,1.04044c-3.38558,0.54161 -6.84387,0.50499 -10.23838,0.98749c-3.65351,-0.01174 -7.28841,0.47565 -10.87176,0.98756c-2.53306,0.36187 -5.07516,1.34244 -7.61092,1c-3.71688,-0.50195 -6.57657,-2.53175 -10.39179,-1.99967c-5.65371,0.78848 -11.29123,3.28244 -16.9023,3.98612c-8.44343,1.05889 -16.97593,-0.96772 -25.40046,-0.96772c0,0 -2.5,0 -2.5,-2.5c0,-2.5 2.5,-2.5 2.5,-2.5c8.1355,0 16.46318,2.04541 24.59954,1.03228c5.66297,-0.70515 11.36539,-3.34481 17.0977,-4.01388c4.57437,-0.53392 7.30142,1.34016 11.60821,2.00033c2.81598,0.43165 3.25166,-0.5518 6.38908,-1c3.67176,-0.52454 7.38243,-1.00115 11.12824,-1.01244c3.19795,-0.4592 6.45987,-0.39592 9.64941,-0.91026c1.0832,-0.17467 2.03264,-0.88575 3.11561,-1.06182c0.80952,-0.13161 1.67475,0.40726 2.45549,0.15609c1.60532,-0.51645 1.93416,-2.76308 2.91586,-4.13423c1.85832,-2.59551 3.20188,-5.52572 4.68114,-8.35447c0.09647,-0.18448 5.39859,-8.23946 5.60116,-8.5548c2.7022,-4.20646 4.96032,-8.66746 7.59328,-12.88416c0.60332,-0.96622 4.1083,-5.30906 4.92023,-6.86253c0.91576,-1.75213 -0.01889,-4.12534 0.93535,-5.85681c2.14468,-3.89153 8.25789,-7.91006 12.35299,-9.35299c5.1804,-2.5902 10.69281,-4.45912 16.25774,-6.0906c2.55261,-0.74835 5.03956,-2.15827 7.69897,-2.0997c3.37681,0.07437 6.0229,2.58167 8.52176,4.37186c4.36193,3.12488 6.98345,7.49514 10.41159,11.54317c1.08325,1.27912 2.50899,2.24697 3.5536,3.55783c1.88764,2.36877 3.17242,5.1767 4.67993,7.7803c2.31805,4.0035 4.06546,8.03393 6.07153,12.13351c0.96259,1.96714 3.31972,3.09959 4.07129,5.15662c0.24974,0.68352 -0.43679,1.38834 -0.65519,2.08251c3.41752,-1.39889 6.81866,-1.88639 10.37982,-2.99546c7.90991,-2.46344 15.96839,-4.64684 23.78814,-7.38071c5.37298,-1.87845 9.06243,-5.66577 14.07916,-7.99542c3.41722,-1.58688 7.02269,-2.87145 10.73135,-3.95554c0.2908,1.98808 1.03435,3.4877 1.99061,4.61886c-3.63976,1.04549 -7.17727,2.28732 -10.52523,3.82824z"/><path d="M411.24235,311.84504c0.07717,2.49881 -2.42163,2.57598 -2.42163,2.57598l-3.33047,0.10224c-0.57111,0.04316 -10.27421,0.7959 -10.48434,0.72685c-0.17965,-0.05904 -0.35632,-0.12428 -0.53033,-0.19508l-0.01813,0.04532l-4.58831,-1.83533c-0.94948,-0.35452 -1.62559,-1.26971 -1.62559,-2.34282c0,-1.1246 0.74256,-2.07576 1.76412,-2.38994l2.70598,-0.90199c2.43715,-1.64817 4.14946,-3.43861 6.26214,-5.47584c0.51901,-0.50047 1.28022,-0.81401 1.59227,-1.46398c0.51256,-1.06761 0.45922,-2.32588 0.7752,-3.46722c0.3916,-1.41452 1.64203,-3.71223 1.09154,-5.34155c-1.12892,0.98453 -2.23309,1.91566 -3.15064,2.74982c-3.22427,2.93122 -4.50541,4.43924 -8.44222,6.53648c-1.92135,1.02355 -3.94969,1.84294 -5.84356,2.91649c-2.76789,1.56899 -5.86207,2.54982 -8.94936,3.31899c-5.81962,0.02981 -11.09497,-1.17095 -16.8209,-2.02338c-4.86548,-0.72433 -9.86129,-1.34477 -14.7309,-1.97006c-1.15036,-0.14771 -2.37508,0.26332 -3.47812,-0.0951c-1.22733,-0.39881 -2.06414,-1.60033 -3.25676,-2.09334c-2.6634,-1.101 -5.6143,-1.31478 -8.44865,-1.83663c-2.73142,-0.50289 -5.52418,-0.60539 -8.26507,-1.05382c-4.82669,-0.78969 -9.68696,-2.44309 -14.5514,-2.92111c-2.8585,-0.2809 -5.81123,-0.23256 -8.54423,-1.11613c0,0 -2.37171,-0.79057 -1.58114,-3.16228c0.79057,-2.37171 3.16228,-1.58114 3.16228,-1.58114c2.36482,0.81911 4.96547,0.63545 7.45577,0.88387c4.97777,0.49657 9.9275,2.15439 14.86602,2.96238c2.75837,0.45129 5.56842,0.55795 8.31751,1.06269c0.075,0.01377 9.22471,2.03081 9.55135,2.16337c1.03185,0.41876 1.69024,1.54436 2.74324,1.90666c0.79546,0.27369 1.68659,-0.19479 2.52188,-0.0951c3.30756,0.39474 6.56821,1.14876 9.8824,1.48331c6.91555,0.69809 13.59221,2.47691 20.5658,2.52325c4.05704,-1.01889 6.56413,-2.93991 10.20708,-4.76452c0.94248,-0.47205 2.065,-0.5133 3,-1c3.79274,-1.97426 7.02547,-5.19269 10.10004,-8.29201c-0.52191,-0.55143 -1.0565,-1.08885 -1.63967,-1.57357c-4.70831,-3.91338 -9.81135,-7.79979 -14.05038,-12.26175c-3.34944,-3.52559 -7.551,-8.18349 -7.79288,-13.32143c-0.09585,-2.03608 -0.64288,-4.5517 0.7135,-6.07323c1.1855,-1.32983 3.53457,-0.44968 5.30186,-0.67452c8.69973,3.82522 20.45626,4.5677 26.49401,12.98051c0.87479,1.2189 3.45689,6.58725 3.47189,8.46178c0.00377,0.47056 -1.85702,6.00232 -2.12829,6.79057c-0.40538,1.17795 -0.55897,2.48397 -1.24508,3.52376c-0.49511,0.75033 -1.13222,1.51432 -1.84956,2.27533c0.45163,0.42208 0.84299,0.87992 1.03263,1.45364c1.23948,3.74981 0.03053,5.44444 -0.9094,8.65568c-0.43966,1.50209 -0.50944,3.14071 -1.2248,4.53278c-1.2738,2.47878 -4.32852,4.99384 -7.08909,6.97063c2.44125,-0.30105 4.90573,-0.40677 7.39496,-0.59428l3.44145,-0.1069c0,0 2.49881,-0.07717 2.57598,2.42163zM402.20001,284.85934c1.80597,-2.10392 2.02153,-3.52615 3.17182,-6.7277c0.26771,-0.74509 0.86017,-1.41779 0.87171,-2.20943c0.02959,-2.0291 -1.35353,-3.88338 -2.52811,-5.53822c-5.14593,-7.25001 -16.22222,-7.48786 -23.50599,-11.01949c-0.23271,-0.22484 -0.70211,-0.99808 -0.69814,-0.67452c0.02195,1.7894 0.66908,3.56746 1.48958,5.1578c0.6826,1.32308 1.80151,2.37088 2.71898,3.54337c2.9457,3.76448 6.28413,6.45722 9.73751,9.71095c2.85501,2.68996 5.89941,5.08858 8.74263,7.75723z"/></g></g></svg>