<svg version="1.1" xmlns="http://www.w3.org/2000/svg" xmlns:xlink="http://www.w3.org/1999/xlink" width="523.5" height="150.72573" viewBox="0,0,523.5,150.72573"><g transform="translate(36.50646,-263.33677)"><g data-paper-data="{&quot;isPaintingLayer&quot;:true}" fill-rule="nonzero" stroke-width="0.5" stroke-linecap="butt" stroke-linejoin="miter" stroke-miterlimit="10" stroke-dasharray="" stroke-dashoffset="0" style="mix-blend-mode: normal"><path d="M-36.25646,413.8125v-95h523v95z" fill="#9966ff" stroke="#000000"/><path d="M208,313.89024l34,-46l34,46z" fill="#9966ff" stroke="#000000"/><path d="M277,317.39024c-2.5,0 -2.5,-2.5 -2.5,-2.5v-3c0.06343,-0.6811 0.12687,-1.36219 0.1903,-2.04329c-3.08266,-2.78652 -4.01857,-7.51454 -8.00463,-9.83008c-0.91146,-0.52948 -2.09846,-0.45379 -3,-1c-0.90002,-0.54528 -1.44716,-1.53811 -2.27064,-2.19327c-3.04477,-2.42239 -7.50864,-5.12037 -9.54165,-8.61903c-1.17947,-2.02977 -1.00024,-4.59117 -1.34109,-6.91387c-0.27449,-1.8705 -1.35647,-3.35829 -2.46564,-4.81548c-1.12535,-1.47846 -3.37274,-1.56095 -5.07803,-2.29869c-1.23364,-0.53369 -2.25024,-1.47077 -3.37537,-2.20616c0,0 -0.10131,-0.06754 -0.2443,-0.19516c-0.07763,0.14555 -0.15807,0.28893 -0.24232,0.42936c-0.48507,0.80845 -1.51493,1.19155 -2,2c-0.54233,0.90388 -0.44721,2.10249 -1,3c-1.44252,2.34207 -4.6168,3.67771 -6,6c-1.56663,2.63026 -1.3968,6.34106 -3,9c-0.71027,1.17799 -3.2562,3.09339 -4.19327,4.27064c-3.94226,4.9527 -7.6517,9.6689 -12.16559,14.18279c-0.42289,0.42289 -0.84579,0.84579 -1.26868,1.26868c-0.01184,0.30795 -0.17767,2.46355 -2.49909,2.46355c-2.5,0 -2.5,-2.5 -2.5,-2.5l0.73223,-2.76777c0.66667,-0.66667 1.33333,-1.33333 2,-2c4.40024,-4.40024 7.96864,-9.00744 11.83441,-13.81721c1.11284,-1.38458 2.89772,-2.20319 3.80673,-3.72936c1.56663,-2.63026 1.3968,-6.34106 3,-9c1.41634,-2.34903 4.6471,-3.67107 6,-6c0.52948,-0.91146 0.45767,-2.09612 1,-3c0.48507,-0.80845 1.51493,-1.19155 2,-2c0.54233,-0.90388 0.44721,-2.10249 1,-3c0.59495,-0.96597 1.57257,-1.63563 2.35886,-2.45344c0,0 1.76777,-1.76777 3.53553,0c1.5119,1.5119 0.43766,3.02381 0.09502,3.4298c0.32117,0.12265 0.52397,0.25785 0.52397,0.25785c2.04631,1.39858 4.65926,1.73587 6.845,2.90463c1.71701,0.91812 4.23771,4.49904 5.01404,6.07712c1.41901,2.88452 0.26792,6.23661 1.88084,8.78405c1.90269,3.0051 5.78704,5.2308 8.45835,7.38097c0.64942,0.52273 1.01244,1.38126 1.72936,1.80673c0.90648,0.53797 2.10249,0.44721 3,1c1.83931,1.13286 5.67944,4.97299 6.8123,6.8123c0.55279,0.89751 0.4616,2.09378 1,3c0.54706,0.92079 1.45538,1.57175 2.18307,2.35762c0.06343,1.3189 0.12687,2.63781 0.1903,3.95671v3c0,0 0,2.5 -2.5,2.5z" fill="#ff0000" stroke="none"/></g></g></svg>