<svg version="1.1" xmlns="http://www.w3.org/2000/svg" xmlns:xlink="http://www.w3.org/1999/xlink" width="469.05344" height="130.98497" viewBox="0,0,469.05344,130.98497"><g transform="translate(0.8099,-266.43724)"><g data-paper-data="{&quot;isPaintingLayer&quot;:true}" fill="#9966ff" fill-rule="nonzero" stroke="none" stroke-width="0.5" stroke-linecap="butt" stroke-linejoin="miter" stroke-miterlimit="10" stroke-dasharray="" stroke-dashoffset="0" style="mix-blend-mode: normal"><path d="M91.24354,327.92221c0,2.5 -2.5,2.5 -2.5,2.5l-2.27554,-0.10727c-3.54184,2.36123 -5.57408,2.10727 -9.72446,2.10727c-4.03098,0 -13.84635,2.00976 -14.5,-4.5c-0.155,-1.54362 1.74942,-2.5674 2.73223,-3.76777c2.38564,-2.91371 4.01082,-6.10025 6.14064,-9.29848c2.80608,-4.21372 5.58606,-8.3849 8.62713,-12.43375c1.47577,-1.96483 3.98094,-4.88034 4.78094,-7.37056c3.33012,-10.36592 -4.98029,-20.4628 -14.12877,-23.65375c-2.46361,0.11068 -4.73779,1.37568 -7.13133,1.96946c-1.10446,0.27399 -2.30035,-0.10718 -3.41089,0.14102c-3.12916,0.69934 -6.02436,2.1978 -9.0417,3.28243c-6.13294,2.20458 -12.36896,4.63988 -18.2236,7.51847c-1.42765,0.70194 -7.51229,4.28401 -8.83798,4.90131c-0.9045,0.42118 -1.97558,0.43905 -2.84639,0.92608c-2.53329,1.41681 -4.0194,4.20161 -6.2227,6.09115c-1.3014,1.11607 -3.03528,1.62596 -4.39903,2.66491c-2.4059,1.83289 -4.61421,4.6407 -6.77076,6.79725c0,0 -1.76777,1.76777 -3.53553,0c-1.76777,-1.76777 0,-3.53553 0,-3.53553c2.30658,-2.30658 4.66738,-5.23675 7.22924,-7.20275c1.28434,-0.98562 2.94641,-1.42679 4.1759,-2.48004c2.5012,-2.14269 4.35494,-5.1088 7.20237,-6.76389c0.96008,-0.55805 2.1465,-0.60606 3.15361,-1.07392c2.99098,-1.38949 5.68557,-3.35639 8.64516,-4.81155c6.02145,-2.96061 12.43088,-5.46771 18.73781,-7.73653c0.5056,-0.18188 9.46962,-3.41482 9.77844,-3.48531c1.0811,-0.24676 2.24826,0.14413 3.32441,-0.12339c1.61611,-0.40175 3.01501,-1.48442 4.6383,-1.85608c1.37572,-0.31498 2.82025,-0.11631 4.23037,-0.17446c2.98769,0.96529 5.44099,1.55113 8.11394,3.44758c7.96252,5.64939 13.08439,17.14398 10.0745,26.70246c-1.52364,4.83863 -5.63858,8.73172 -8.49543,12.76957c-3.64889,5.15733 -6.51547,10.83465 -10.01274,16.01784c-0.47916,0.71014 -1.08939,1.56157 -1.86231,2.07857c0.2779,-0.01864 0.5565,-0.02987 0.8342,-0.04035c2.33167,-0.08798 4.66667,0 7,0c4.05532,0 4.76203,0.44961 8.27554,-1.89273l3.72446,-0.10727c0,0 2.5,0 2.5,2.5z"/><path d="M302.86158,374.15828c-2.23607,1.11803 -3.3541,-1.11803 -3.3541,-1.11803l-0.07172,-0.15146c0.04718,0.64261 0.08872,1.28582 0.14263,1.92772c0.32109,3.82336 -0.13808,9.49429 1.14553,13.31386c0.4514,0.54392 0.90885,1.08416 1.37474,1.61942c0.36363,0.22604 0.68891,0.47074 0.77151,0.8581c0.00133,0.00622 0.00257,0.01243 0.00373,0.01863c0.00762,0.00848 0.01525,0.01696 0.02288,0.02544l-0.01147,0.06733c0.00685,0.11689 -0.01498,0.22877 -0.05741,0.33705l-0.0309,0.18139l0.31825,-0.10608l0.98155,2.94464c0.09499,0.2642 0.14675,0.54902 0.14675,0.84593c0,1.38071 -1.11929,2.5 -2.5,2.5c-1.1246,0 -2.07576,-0.74256 -2.38994,-1.76412l-0.85077,-2.55231c-0.64653,-0.70063 -1.62994,-1.15938 -1.98221,-2.03962c-0.03107,-0.07763 -0.06152,-0.15574 -0.09137,-0.23432c-4.33115,-4.87982 -8.25534,-10.13073 -12.64181,-14.984c-17.88347,-19.78661 -35.65642,-39.56377 -53.98808,-58.94295c-6.8071,-7.19607 -13.66254,-14.3448 -20.5093,-21.50309c-2.21392,-2.31465 -4.63469,-4.43415 -7.13462,-6.43651c-1.09032,-0.87331 -2.18428,-1.74459 -3.22325,-2.6784c-0.18107,-0.16275 -0.52803,-0.81554 -0.42089,-0.59692c1.81708,3.7079 0.5697,8.01273 -0.33553,11.81037c-1.15953,4.86445 -1.94744,10.43469 -1.93223,15.42186c0,0 0,2.5 -2.5,2.5c-2.5,0 -2.5,-2.5 -2.5,-2.5c0.01977,-7.44089 3.03552,-14.73794 3,-22c-0.00594,-1.21513 -0.19523,-7.97941 0.73223,-8.76777c3.97307,-3.37713 7.73628,0.95624 10.24938,2.86409c10.46607,7.94546 19.18284,18.911 28.20656,28.45036c13.78066,14.56812 27.36759,29.20554 40.67034,44.2062c6.43926,7.26114 13.34695,14.18338 19.55684,21.64043c0.412,0.49475 0.81851,0.99216 1.2213,1.49129c-0.08803,-1.94294 -0.14018,-3.84622 -0.28437,-5.57309c-0.14002,-1.67697 -0.95071,-8.60792 0.11961,-9.77329c6.32369,-6.88526 7.14279,0.56145 8.45346,3.85544l0.81071,1.48831c0,0 1.11803,2.23607 -1.11803,3.3541z"/><path d="M463.24363,371.91435c0.00259,-0.15317 0.08177,-2.49213 2.49991,-2.49213c2.5,0 2.5,2.5 2.5,2.5l-0.73223,2.76777c-3.22118,3.22118 -6.47464,5.53853 -10.18279,8.16559c-1.63141,1.15578 -2.83389,3.64168 -4.83132,3.55448c-1.79839,-0.07852 -2.46849,-2.62069 -3.70675,-3.92724c-0.77305,-0.81569 -1.61001,-1.57422 -2.32714,-2.43949c-3.20299,-3.86463 -5.95868,-8.11098 -9.07634,-12.04505c-4.02059,-5.07344 -8.4378,-9.71921 -11.97318,-15.15712c-6.34878,-9.7877 -12.72996,-19.55524 -19.04669,-29.36365c-0.97664,-1.51649 -2.16558,-2.91812 -2.91615,-4.5583c-0.56975,-1.24503 -0.46166,-2.72399 -0.99368,-3.9856c-0.41176,-0.97643 -1.33269,-1.67054 -1.79384,-2.62463c-0.28697,-0.59371 0.21423,-1.72322 -0.41016,-1.9353c-0.55132,-0.18725 -0.55495,1.03215 -0.92474,1.4819c-1.3204,1.60596 -2.32285,3.50368 -3.87333,4.88881c-3.12455,2.79134 -7.71994,4.82876 -11.18988,7.30598c-4.855,3.46602 -9.12244,7.60215 -14.07783,10.91271c-3.4924,2.60964 -4.49933,3.74517 -8.59791,5.31165c-4.10258,1.568 -9.01109,2.09745 -13.28387,3.08348c-4.33198,0.99969 -8.87358,2.54621 -13.27926,3.04796c-2.9418,0.33504 -5.95295,-0.44579 -8.88244,-0.01622c-3.35071,0.49133 -6.67644,1.59051 -10.09064,2.01301c-7.90494,0.97823 -15.98862,0.38427 -23.81953,1.97072c0,0 -2.45145,0.49029 -2.94174,-1.96116c-0.49029,-2.45145 1.96116,-2.94174 1.96116,-2.94174c7.97535,-1.57636 16.14719,-1.02211 24.18047,-2.02928c3.3541,-0.42052 6.61717,-1.52777 9.90936,-1.98699c1.5718,-0.21925 7.65119,0.15078 9.11756,-0.01622c4.22043,-0.48066 8.57094,-1.99439 12.72074,-2.95204c4.08921,-0.94366 8.78345,-1.4399 12.71613,-2.91652c3.30276,-1.2401 4.5289,-2.52498 7.40209,-4.68835c4.9513,-3.2936 9.21361,-7.43655 14.0595,-10.89968c3.29326,-2.35353 7.72481,-4.2373 10.67278,-6.88164c2.45854,-2.20531 4.48438,-8.47131 9.20194,-7.62929c1.77954,0.31762 2.47893,2.63868 3.58984,4.0647c1.65066,2.11887 2.10987,4.94057 3.21248,7.38976c1.89156,4.20168 5.45703,8.35036 7.96767,12.22093c4.53493,6.99134 9.06985,13.98269 13.60478,20.97403c5.20116,8.03825 11.98295,15.14428 17.75093,22.80906c1.67525,2.22616 3.92753,4.02919 5.33712,6.43238c0.35304,0.6019 -0.38291,2.24517 0.29325,2.07276c0.87546,-0.22323 0.5461,-1.7908 1.16868,-2.44552c0.32868,-0.34564 5.44063,-3.55342 6,-4c1.13486,-0.90603 2.09018,-2.01218 3.08506,-3.07451z"/></g></g></svg>